<svg width="1583" height="263" viewBox="0 0 1583 263" fill="none" xmlns="http://www.w3.org/2000/svg">
<path d="M0.254358 4.63358H112.374V54.2103H55.17V93.8716H110.086V142.304H55.17V209.423H114.662V259H0.254358V4.63358ZM272.697 148.025V194.169C272.697 216.542 266.722 233.576 254.773 245.271C243.078 256.966 226.044 262.814 203.671 262.814C175.959 262.814 156.509 254.297 145.323 237.263C143.035 233.957 141.128 230.652 139.602 227.347C138.331 224.042 137.314 220.356 136.551 216.288C135.789 211.966 135.153 207.135 134.645 201.796C134.39 196.203 134.263 189.593 134.263 181.965V75.5663C134.263 59.5493 135.662 47.2187 138.458 38.5745C141.255 29.6762 146.34 22.3032 153.713 16.4557C166.425 6.0319 183.967 0.819996 206.34 0.819996C250.578 0.819996 272.697 23.4473 272.697 68.7019V101.499H217.781V75.5663C217.781 64.8883 216.764 57.6425 214.73 53.8289C212.95 50.0153 209.264 48.1085 203.671 48.1085C197.06 48.1085 192.738 50.9051 190.704 56.4984C189.942 58.5323 189.433 60.8205 189.179 63.3629C188.925 65.651 188.798 69.7189 188.798 75.5663V181.965C188.798 189.847 188.925 195.44 189.179 198.745C189.433 201.796 190.196 204.466 191.467 206.754C193.501 211.584 197.442 214 203.289 214C206.086 214 208.501 213.364 210.535 212.093C212.823 210.567 214.476 208.533 215.493 205.991C216.51 203.957 217.145 201.288 217.4 197.983C217.654 194.423 217.781 189.084 217.781 181.965V148.025H272.697ZM377.186 75.185C377.186 63.9985 376.169 56.4984 374.135 52.6848C372.101 48.617 368.415 46.5831 363.076 46.5831C357.228 46.5831 353.16 48.7441 350.872 53.0662C348.838 57.134 347.821 64.5069 347.821 75.185V181.203C347.821 187.813 347.948 192.644 348.203 195.694C348.457 198.491 349.092 201.033 350.109 203.322C352.398 209.678 356.847 212.856 363.457 212.856C369.05 212.856 372.864 210.186 374.898 204.847C375.406 203.576 375.788 202.432 376.042 201.415C376.296 200.144 376.55 198.745 376.805 197.22C377.059 195.44 377.186 193.279 377.186 190.737C377.186 187.94 377.186 184.381 377.186 180.059V75.185ZM293.287 71.3714C293.287 48.2356 299.134 30.6931 310.829 18.7439C322.524 6.79462 339.686 0.819996 362.313 0.819996C408.584 0.819996 431.72 24.3371 431.72 71.3714V202.178C431.72 220.737 425.491 235.483 413.034 246.415C400.576 257.347 383.542 262.814 361.932 262.814C340.575 262.814 323.796 257.093 311.592 245.652C299.389 234.212 293.287 218.576 293.287 198.745V71.3714ZM459.822 4.63358H518.551L542.958 110.651V4.63358H597.492V259H539.907L514.737 137.347V259H459.822V4.63358ZM709.385 75.185C709.385 63.9985 708.368 56.4984 706.334 52.6848C704.301 48.617 700.614 46.5831 695.275 46.5831C689.428 46.5831 685.36 48.7441 683.072 53.0662C681.038 57.134 680.021 64.5069 680.021 75.185V181.203C680.021 187.813 680.148 192.644 680.402 195.694C680.656 198.491 681.292 201.033 682.309 203.322C684.597 209.678 689.046 212.856 695.656 212.856C701.25 212.856 705.063 210.186 707.097 204.847C707.606 203.576 707.987 202.432 708.241 201.415C708.495 200.144 708.75 198.745 709.004 197.22C709.258 195.44 709.385 193.279 709.385 190.737C709.385 187.94 709.385 184.381 709.385 180.059V75.185ZM625.486 71.3714C625.486 48.2356 631.334 30.6931 643.029 18.7439C654.724 6.79462 671.885 0.819996 694.512 0.819996C740.784 0.819996 763.92 24.3371 763.92 71.3714V202.178C763.92 220.737 757.691 235.483 745.233 246.415C732.775 257.347 715.741 262.814 694.131 262.814C672.775 262.814 655.995 257.093 643.792 245.652C631.588 234.212 625.486 218.576 625.486 198.745V71.3714ZM775.623 4.63358H828.631L844.649 133.152L859.903 4.63358H913.675L879.734 259H809.182L775.623 4.63358ZM994.692 174.72L984.396 66.7951L974.099 174.72H994.692ZM947.404 4.63358H1020.62L1057.24 259H1002.7L999.65 222.771H969.904L965.709 259H912.7L947.404 4.63358ZM1091.14 55.7357H1059.87V4.63358H1178.47V55.7357H1146.06V259H1091.14V55.7357ZM1196.1 4.63358H1251.01V259H1196.1V4.63358ZM1362.61 75.185C1362.61 63.9985 1361.59 56.4984 1359.56 52.6848C1357.53 48.617 1353.84 46.5831 1348.5 46.5831C1342.65 46.5831 1338.59 48.7441 1336.3 53.0662C1334.26 57.134 1333.25 64.5069 1333.25 75.185V181.203C1333.25 187.813 1333.37 192.644 1333.63 195.694C1333.88 198.491 1334.52 201.033 1335.53 203.322C1337.82 209.678 1342.27 212.856 1348.88 212.856C1354.48 212.856 1358.29 210.186 1360.32 204.847C1360.83 203.576 1361.21 202.432 1361.47 201.415C1361.72 200.144 1361.98 198.745 1362.23 197.22C1362.48 195.44 1362.61 193.279 1362.61 190.737C1362.61 187.94 1362.61 184.381 1362.61 180.059V75.185ZM1278.71 71.3714C1278.71 48.2356 1284.56 30.6931 1296.25 18.7439C1307.95 6.79462 1325.11 0.819996 1347.74 0.819996C1394.01 0.819996 1417.15 24.3371 1417.15 71.3714V202.178C1417.15 220.737 1410.92 235.483 1398.46 246.415C1386 257.347 1368.97 262.814 1347.36 262.814C1326 262.814 1309.22 257.093 1297.02 245.652C1284.81 234.212 1278.71 218.576 1278.71 198.745V71.3714ZM1445.25 4.63358H1503.98L1528.38 110.651V4.63358H1582.92V259H1525.33L1500.16 137.347V259H1445.25V4.63358Z" fill="white"/>
</svg>
